<svg xmlns="http://www.w3.org/2000/svg" width="1133" height="1469" viewBox="0 0 1133 1469">
  <path d="M708 848Q834 848 904 883Q1014 938 1014 1081Q1014 1225 897 1275Q831 1303 701 1303H346V848ZM775 170Q958 170 1036 276Q1085 343 1085 438Q1085 598 942 656Q866 687 741 687H346V170ZM151 1469H782Q1040 1469 1149 1315Q1213 1224 1213 1105Q1213 966 1134 877Q1093 830 1016 791Q1129 748 1185 694Q1284 598 1284 429Q1284 287 1195 172Q1062 0 772 0H151Z" transform="translate(-151 1469) scale(1 -1)" fill="black"/>
</svg>