<svg xmlns="http://www.w3.org/2000/svg" width="1342" height="1548" viewBox="0 0 1342 1548">
  <path d="M1149 1427Q1368 1312 1417 1024H1220Q1184 1185 1071.0 1258.5Q958 1332 786 1332Q582 1332 442.5 1179.0Q303 1026 303 723Q303 461 418.0 296.5Q533 132 793 132Q992 132 1122.5 247.5Q1253 363 1256 621H796V786H1441V0H1313L1265 189Q1164 78 1086 35Q955 -39 753 -39Q492 -39 304 130Q99 342 99 712Q99 1081 299 1299Q489 1507 791 1507Q998 1507 1149 1427ZM758 1509Z" transform="translate(-99 1509) scale(1 -1)" fill="black"/>
</svg>