<svg xmlns="http://www.w3.org/2000/svg" width="1432" height="1626" viewBox="0 0 1432 1626">
  <path d="M1500 4 1400 -117 1173 56Q1091 11 995.5 -16.0Q900 -43 787 -43Q445 -43 251 181Q80 399 80 727Q80 1025 228 1237Q418 1509 790 1509Q1179 1509 1366 1259Q1512 1064 1512 760Q1512 618 1477 487Q1424 287 1298 161ZM1021 177 860 303 960 426 1152 277Q1243 381 1275.5 510.0Q1308 639 1308 757Q1308 1016 1172.5 1174.0Q1037 1332 802 1332Q564 1332 425.0 1180.5Q286 1029 286 714Q286 449 419.5 292.0Q553 135 811 135Q873 135 927.0 143.5Q981 152 1021 177Z" transform="translate(-80 1509) scale(1 -1)" fill="black"/>
</svg>