<svg xmlns="http://www.w3.org/2000/svg" width="1220" height="1469" viewBox="0 0 1220 1469">
  <path d="M839 796Q979 796 1060.5 852.0Q1142 908 1142 1054Q1142 1211 1028 1268Q967 1298 865 1298H379V796ZM180 1469H860Q1028 1469 1137 1420Q1344 1326 1344 1073Q1344 941 1289.5 857.0Q1235 773 1137 722Q1223 687 1266.5 630.0Q1310 573 1315 445L1322 248Q1325 164 1336 123Q1354 53 1400 33V0H1156Q1146 19 1140.0 49.0Q1134 79 1130 165L1118 410Q1111 554 1011 603Q954 630 832 630H379V0H180Z" transform="translate(-180 1469) scale(1 -1)" fill="black"/>
</svg>