<svg xmlns="http://www.w3.org/2000/svg" width="1171.0569620253164" height="1552" viewBox="0 0 1171.0569620253164 1552">
  <path d="M286 474Q293 349 345 271Q444 125 694 125Q806 125 898 157Q1076 219 1076 379Q1076 499 1001 550Q925 600 763 637L564 682Q369 726 288 779Q148 871 148 1054Q148 1252 285.0 1379.0Q422 1506 673 1506Q904 1506 1065.5 1394.5Q1227 1283 1227 1038H1040Q1025 1156 976 1219Q885 1334 667 1334Q491 1334 414.0 1260.0Q337 1186 337 1088Q337 980 427 930Q486 898 694 850L900 803Q1049 769 1130 710Q1270 607 1270 411Q1270 167 1092.5 62.0Q915 -43 680 -43Q406 -43 251 97Q96 236 99 474ZM688 1509Z" transform="translate(-98.94303797468353 1509) scale(1 -1)" fill="black"/>
</svg>